<svg width="100" height="100" viewBox="0 0 100 100" fill="none" xmlns="http://www.w3.org/2000/svg">
<path d="M42.8846 0H46.1538L48.6538 0.193175L50.9615 0.515132L52.7564 0.901481L54.6795 1.481L56.4103 2.18931L57.7564 2.83323L59.2949 3.73471L60.1923 4.37862L61.218 5.15132L62.1795 5.85963L63.5256 6.56793L64.7436 7.01867L67.2436 7.72698L71.7308 8.75724L73.9103 9.40116L75.5769 10.0451L77.0513 10.8178L77.8205 11.3329L78.9103 12.1056L79.5513 12.6207L80.641 13.7154L81.0897 14.2305L81.9231 15.1964L82.5 15.8403L83.2051 16.7418L83.4615 16.9994V17.1281H83.5897V17.2569L83.8462 17.3857L84.4231 17.7721L85.3205 18.1584L87.2436 18.8023L89.1667 19.6394L90.7692 20.5409L92.3718 21.5712L93.141 22.1507L93.8462 22.7302L95.1923 24.0824L95.7692 24.7907L96.4103 25.5634L97.1795 26.7225L97.8205 27.8815L98.3974 29.1694L98.9103 30.7147L99.4231 32.8397L99.7436 34.5138L99.8718 35.6729L99.9359 36.7032L100 39.3432V40.6954L99.8077 44.3014L99.4231 47.7141L99.0385 50.4185L98.5897 52.6722L98.0128 54.926L97.3077 56.9865L96.6026 58.5319L95.9615 59.6909L95.2564 60.7212L94.6795 61.4939L94.1026 62.1378L93.5256 62.8461L91.3462 65.0354L90.4487 65.7437L89.8718 66.2589L89.0385 66.8384L87.6282 67.8043L86.2821 68.6413L85.1282 69.2853L83.6539 69.9936L81.7949 70.8307L80.1923 71.4102L79.1667 71.6677L78.8462 73.2775L78.0769 76.8835L77.3077 80.3606L76.1539 85.7695L75.1282 89.9549L74.4872 92.2086L73.7821 94.4623L73.0128 96.5229L72.5 97.5531L71.7949 98.7122L71.3462 99.2917L70.8333 99.678L70.3205 99.9356L70.0641 100H68.7821L68.141 99.8068L67.6282 99.3561L67.1154 98.519L66.7308 97.6175L65.9615 95.2994L65.3846 93.2389L64.5513 89.5686L63.2692 83.5802L62.6923 80.6182L61.6667 75.0161L61.5385 74.2434V74.1146L59.8077 73.9214L58.2692 73.6639L56.2821 73.2131L54.7436 72.7624L53.2051 72.1829L51.5385 71.4746L50.1282 70.7019L49.0385 70.058L47.8205 69.2853L46.6667 68.4482L45.8333 67.8043L44.6795 66.9672L42.2436 65.1642L41.2821 64.5203L39.6154 63.49L38.2051 62.5885L36.6026 61.6871L33.8462 60.2061L31.9872 59.369L30.3205 58.6607L27.5641 57.6304L26.0256 57.1153L23.4615 56.3426L18.3974 54.9903L16.1538 54.3464L13.9103 53.6381L11.2179 52.5435L9.8718 51.8996L8.78205 51.2556L7.05128 50.0966L6.28205 49.5171L5.57692 48.8731L5.0641 48.4224L4.10256 47.4565L3.52564 46.7482L3.01282 46.1043L2.11538 44.7521L1.60256 43.7862L0.961539 42.1764L0.512821 40.631L0.192308 38.8925L0 37.3471V35.1578L0.192308 33.2904L0.512821 31.9382L1.08974 30.1996L1.79487 28.783L2.5641 27.5596L3.01282 26.9156L3.84615 25.6922L4.35897 25.0483L5.0641 24.018L5.96154 22.4726L6.79487 20.9272L7.4359 19.9614L8.26923 18.9311L8.71795 18.416L9.29487 17.8364L10.3846 16.9994L11.2179 16.4198L12.5641 15.6471L13.7821 15.0032L16.0897 14.1661L18.4615 13.5222L20.2564 13.2003L21.9872 12.9427L23.9744 12.6851L24.2949 12.6207L24.4231 12.2988L24.8077 11.5261L25.2564 10.4958L25.8974 9.27238L26.4103 8.3709L27.0513 7.46941L27.6282 6.88989L28.0769 6.37476L29.1667 5.34449L30.1282 4.5718L31.0897 3.86349L32.3718 3.0264L33.7821 2.2537L35.1282 1.67418L36.4744 1.15905L38.5897 0.579524L40.5769 0.193175L41.7949 0.0643915L42.8846 0ZM43.2692 3.67032L41.3462 3.86349L39.4872 4.24984L37.7564 4.76497L36.0897 5.47328L34.4872 6.24598L32.9487 7.21185L31.7949 8.04894L31.0256 8.62846L30.3846 9.20798L29.8718 9.65873L29.2949 10.3026L28.8462 11.0109L28.4615 11.848L28.2692 12.8139V13.5866L28.5256 14.7457L29.1026 16.0979L29.6154 16.8706L30.1923 17.6433L32.5 19.9614L33.3333 20.6053L33.9744 21.1204L35.0641 21.8931L36.1538 22.6014L37.8205 23.5673L39.8718 24.6619L41.1538 25.2415L42.8846 25.8854L44.6795 26.4649L46.0256 26.8513L46.4103 27.1088L46.6026 27.3664L46.6667 27.5596V28.0747L46.4103 28.7186L46.1538 29.0406L45.7051 29.2337L45.0641 29.2981L43.8462 29.105L42.6282 28.8474L40.9615 28.3967L39.359 27.8171L37.5 26.98L36.2821 26.3361L34.1667 24.9195L33.2692 24.2756L32.2436 23.4385L31.5385 22.859L30.641 22.0863L29.9359 21.4424L29.0385 20.7341L28.2051 20.0901L27.1795 19.4462L25.641 18.8667L23.9103 18.4804L22.5641 18.2872H19.6795L18.2051 18.4804L16.2821 18.9311L14.8077 19.4462L13.2692 20.1545L12.3077 20.7985L11.6026 21.378L10.7692 22.2151L10.1282 22.9878L9.61539 23.8892L9.16667 24.9195L8.97436 25.5634L8.91026 26.0786V28.1391L9.10256 29.2337L9.48718 30.4572L10.2564 32.067L10.7692 33.0328L11.5385 34.1919L12.4359 35.3509L13.6538 36.5744L13.8462 36.8319H13.9744L14.1026 37.0895H14.2308L14.359 37.3471H14.4872V37.4759L15 37.9266L15.5769 38.4417L16.7308 39.2788L18.3974 40.3735L19.1026 40.8242L20.1923 41.4681L22.8846 42.8203L25.5769 43.9794L28.7821 45.2028L31.5385 46.1687L32.1795 46.5551L32.5 47.0702L32.5641 47.2634V47.7785L32.2436 48.4224L31.7949 48.8088L31.4103 48.8731L30.0641 48.4868L27.7564 47.7141L25.5769 46.9414L22.8205 45.9111L20.8974 45.0741L19.1667 44.3014L17.5641 43.5287L16.6667 43.0779L14.6154 41.7901L13.5897 41.0818L12.4359 40.1803L11.7949 39.6008L11.2821 39.15L10.7692 38.6349L10.1923 37.9266L9.67949 37.3471L9.03846 36.4456L8.33333 35.2222L7.82051 33.9987L7.5 33.1616L7.05128 31.3587L6.79487 29.4269L6.66667 29.2337L6.21795 30.1352L5.70513 31.4231L5.19231 33.0328L4.8718 34.5138L4.67949 36.2524V38.2486L4.8718 39.6652L5.19231 41.0174L5.70513 42.3052L6.21795 43.3355L6.98718 44.5589L7.82051 45.4604L8.26923 45.9755L8.91026 46.6194L9.61539 47.199L10.1923 47.6497L11.4103 48.4224L12.7564 49.1307L14.0385 49.7102L15.7692 50.3542L18.7179 51.2556L21.9231 52.1571L25.0641 53.1874L29.1667 54.6684L32.5 55.8918L35 56.8577L36.9231 57.566L38.9744 58.2099L41.3462 58.725L43.0128 58.9826L44.7436 59.1114H46.0897L48.141 58.7894L49.7436 58.2743L50.4487 58.0167L51.5385 57.4372L52.3718 56.7933L52.8846 56.2138L53.5256 55.1835L53.9744 54.282L54.2949 53.3162L54.4872 52.4147L54.6154 51.1269V50.5473L54.4231 49.1951L54.1667 48.2292L53.6538 47.0702L53.141 46.1687L52.6282 45.5248L52.0513 44.8809L51.4744 44.3657L51.0256 44.1726L50.5128 44.0438H46.9231L45.3846 43.9794L43.7821 43.7862L41.7949 43.3355L40.0641 42.756L38.3974 42.0477L37.3718 41.5325L36.0256 40.8242L34.4231 39.8583L33.5256 39.2144L32.5 38.4417L31.6667 37.7334L30.7692 37.0251L29.9359 36.2524L28.718 35.029L28.2692 34.5138L27.5 33.7411L26.7949 32.8397L25.8974 31.6162L25.5769 30.9723V30.3284L25.7692 29.942L26.1538 29.6201L26.7949 29.4269H27.2436L27.8205 29.7489L28.3974 30.5216L29.1667 31.6162L29.9359 32.4533L30.3846 32.9684L31.7949 34.3851H31.9231V34.5138L32.4359 34.9646L33.3333 35.7373L34.359 36.51L35.2564 37.1539L36.3462 37.8622L37.3077 38.4417L39.1667 39.4076L40.7051 40.1159L42.8205 40.8242L44.4872 41.2106L45.9615 41.4037L46.6026 41.4681H47.3077L48.8462 41.3393L50.8974 40.8242L52.5 40.1159L53.718 39.2788L54.2949 38.8281L55.3205 37.7978L55.8974 37.0895L56.7308 35.9305L57.2436 34.8358L57.5 34.2563L57.7564 32.7753V31.0367L57.3718 29.4913L56.859 28.2035L56.1538 26.8513L55.5128 25.9498L54.8077 25.0483L54.1026 24.2756L53.6538 23.7605L52.3718 22.4726L51.859 22.0219L50.9615 21.2492L50.2564 20.7341L49.1667 19.9614L47.5641 18.9311L46.6026 18.2872L45.1282 17.4501L44.2308 16.9994L43.5897 16.613L43.2692 16.291L43.141 15.8403L43.2051 15.3896L43.4615 14.9388L43.5256 14.7457L43.8462 14.6169L44.359 14.4237H45L46.1538 14.81L47.5 15.3896L49.1667 16.291L50.3846 17.0637L51.2821 17.7077L52.1154 18.3516L52.7564 18.9311L53.2692 19.3818L53.5897 19.7038H53.718L53.8462 19.9614H53.9744L54.1026 20.2189H54.2308L54.359 20.4765L54.9359 21.056L55.5128 21.7643L56.0256 22.3439L56.7949 23.3741L57.8846 25.0483L58.5897 26.2073L59.4231 27.7527L60.1923 29.4269L60.7692 30.5216L61.4744 31.6162L62.0513 32.3889L62.8846 33.4192L63.6538 34.2563H63.7821V34.3851L64.2949 34.8358L65.1923 35.6085L66.218 36.3168L67.1795 36.8319L68.5897 37.3471L69.6154 37.6046L70.7051 37.7334H71.4103L72.5 37.6046L73.3974 37.4115L74.359 37.0895L75.3846 36.5744L76.3462 35.9948L77.0513 35.4153L77.7564 34.707L78.4615 33.8055L79.1026 32.9041L79.6154 32.0026L80.2564 30.586L80.9615 28.461L81.2821 26.8513L81.4103 25.8854L81.4744 24.8551V23.8892L81.2821 22.2795L80.9615 20.7985L80.641 19.7682L80.1282 18.6091L79.4231 17.5789L78.5897 16.613L78.0128 16.0335L77.3077 15.454L76.5385 14.8744L75.1923 14.0373L73.4615 13.1359L72.1795 12.6207L69.8718 11.9124L68.9103 11.7193L66.9231 11.3973H66.7308L66.7949 11.6549L68.0128 13.4578L68.9103 14.81L69.9359 16.6774L70.5769 17.8364L71.3462 19.7682L71.9872 21.4424L72.5 23.1809L73.0769 25.3059L73.141 26.0786L72.9487 26.4649L72.6282 26.8513L72.1154 27.0444H71.3462L70.9615 26.8513L70.7051 26.5293L70.3846 25.6922L69.9359 24.1468L69.4231 22.7302L68.8462 21.378L68.2051 19.9614L67.5641 18.7379L66.7308 17.1925L66.218 16.4198L65.4487 15.3252L64.4231 13.973L63.8462 13.2003L63.2692 12.492L62.3077 11.4617L61.859 10.9466L61.0897 10.1095L59.6154 8.62846L58.9103 8.04894L58.141 7.40502L56.859 6.63232L55.641 5.98841L53.8462 5.2801L52.1154 4.70058L49.8077 4.12106L48.4615 3.86349L46.4744 3.67032H43.2692ZM85 22.2795V25.0483L84.7436 27.0444L84.359 28.7186L83.9744 29.942L83.2692 31.6162L82.6923 32.7109L81.7949 34.1275L81.1539 34.9002L80.5769 35.6085L79.8718 36.3812L78.9103 37.2827L78.141 37.8622L76.6026 38.8925L75.7051 39.4076L74.6154 39.8583L73.2051 40.2447L72.3718 40.3735L70.5128 40.4379L67.3077 40.2447H65.2564L62.5641 40.4379L61.0897 40.631L59.6154 40.953L58.718 41.275L57.9487 41.6613L57.3077 42.1764L56.7308 42.9491L56.4744 43.4643L56.3462 43.9794V45.718L56.5385 46.8126L56.9872 48.1005L57.7564 49.7102L58.5256 50.8049L59.2308 51.5776L59.6795 52.0927L60.9615 53.3806L62.3718 54.5396L63.5897 55.3767L64.8077 56.1494L65.5769 56.6001L67.0513 57.3084L68.141 57.7592L69.5513 58.2743L71.6667 58.8538L73.9103 59.2402L76.4103 59.4977L76.9872 59.6909L77.3718 60.1417L77.5 60.528V61.1075L77.1795 61.7514L76.859 62.009L76.6667 62.0734H75.3846L73.5256 61.8802L71.218 61.4939L70.1923 61.2363L68.2051 60.6568L65.7692 59.6909L64.359 59.047L63.141 58.4031L62.1154 57.7592L61.0897 57.0509L60.4487 56.5357L59.5513 55.763L58.7821 55.0547L57.5 53.7669L56.9872 53.123H56.859L56.6667 54.0889L56.2821 55.2479L55.7692 56.2138L55 57.4372L54.4231 58.0811L53.2692 59.2402L52.3077 59.9485L51.218 60.5924L50.2564 60.9788L48.9744 61.3651L48.0128 61.5583L46.6026 61.6871L44.4231 61.6227L43.5897 61.5583L43.8462 61.8802L45.0641 62.7173L46.2821 63.6188L47.3077 64.3915L48.4615 65.293L49.5513 66.0657L50.641 66.774L51.9872 67.5467L53.718 68.4482L55.4487 69.1565L56.6667 69.5428L58.718 70.058L60.3846 70.3155L62.6282 70.5087L63.718 70.5731H64.6154L64.6795 71.217L65.5769 76.0464L66.7949 82.4211L67.7564 87.1217L68.2692 89.4398L69.1026 92.9813L69.5513 94.5911L69.6795 94.9775L69.8077 94.9131L70.7692 92.0155L71.5385 89.2466L72.5641 85.0612L73.8462 79.0084L74.5513 75.3381L75.4487 70.5731V70.3799L75 70.3155L72.9487 70.1867L71.1539 69.8648L69.5513 69.4784L68.2051 69.0921L66.4103 68.3838L64.8077 67.6755L62.5 66.5164L60.7692 65.4862L59.2308 64.5847L58.5256 64.1339L58.0128 63.5544L57.8205 63.0393V62.331L58.0128 61.7514L58.2692 61.4939L58.7821 61.4295L59.6154 61.7514L61.0256 62.5885L62.5641 63.49L64.8077 64.5847L66.2821 65.2286L69.0385 66.1945L70.7051 66.5808L72.6282 66.9028L74.7436 67.0959L76.6026 67.0316L77.8846 66.9028L79.8718 66.5164L81.9231 65.8725L83.8462 64.971L85.5128 63.9408L86.4103 63.2968L87.1154 62.7817L88.0128 62.009L89.6154 60.3992L90.0641 59.8841L90.7051 59.1758L91.218 58.5319L91.9231 57.6948L92.5641 56.7933L93.2051 55.8274L93.7821 54.604L94.0385 54.0889L94.6154 52.5435L95.1282 50.7405L95.5769 48.5512L95.8974 46.1687L96.1539 43.9794L96.218 43.3999L95.8974 43.7218L95.0641 44.6877L93.4615 46.2975L92.6282 46.9414L91.859 47.5209L91.218 47.9717L90.2564 48.6156L89.2308 49.1951L88.2051 49.7102L87.3077 50.0966L85.7692 50.6761L83.8462 51.2556L82.3077 51.642L80.5769 51.8996L79.8718 51.9639L77.8205 52.0283L75.7692 51.8996L73.7821 51.5776L71.859 51.0625L70.3846 50.4185L69.2949 49.9034L68.141 49.2595L67.0513 48.4868L66.3462 47.8429L66.0897 47.3921V46.877L66.3462 46.3619L66.4103 46.1687L66.6667 46.0399L67.1795 45.8467H67.7564L68.6539 46.2975L69.7436 47.0702L70.8333 47.7141L72.1795 48.358L73.9103 48.9375L75.641 49.2595L77.2436 49.3883H78.8462L80.5128 49.2595L82.1795 49.0019L84.1026 48.4868L85.5769 47.9717L87.2436 47.2634L88.2692 46.7482L89.4231 46.1043L90.5128 45.3316L91.2821 44.7521L92.1795 43.9794L92.8205 43.3999L93.2692 42.9491L93.718 42.3696L94.2949 41.7257L94.8077 40.953L95.4487 39.9227L96.0897 38.5061L96.3462 37.6046L96.4103 36.8963V35.6729L96.2821 34.3207L96.0256 32.9041L95.7051 31.8094L95.0641 30.264L94.4231 29.105L94.1026 28.6542H94.0385L93.6539 30.3928L93.2051 32.1958L92.6923 33.7411L91.9872 35.3509L91.4744 36.188L90.9615 36.9607L90.3205 37.669L89.8718 38.1842L89.4231 38.6349L88.9103 39.0856L87.8846 39.8583L86.9231 40.5023L86.3462 40.6954L85.641 40.631L85.2564 40.4379H85.1282L85 40.1803L84.7436 39.7296V39.2144L84.9359 38.8281L85.1923 38.5061L85.8333 37.991L86.4744 37.4115L87.5641 36.3168L88.3974 35.1578L88.9744 34.1919L89.5513 33.1616L90.1282 31.8738L90.641 30.3284L91.0256 28.5254L91.2821 26.7225V26.4005L90.5128 25.499L90.0641 24.9839L89.2308 24.1468L88.2692 23.4385L87.1154 22.7946L86.218 22.4726L85.3205 22.2795H85Z" fill="url(#paint0_linear_2012_32)"/>
<defs>
<linearGradient id="paint0_linear_2012_32" x1="50" y1="0" x2="50" y2="100" gradientUnits="userSpaceOnUse">
<stop stop-color="#3DE0FC"/>
<stop offset="1" stop-color="#6A5BEE"/>
</linearGradient>
</defs>
</svg>
